<svg xmlns="http://www.w3.org/2000/svg" fill="none" viewBox="0 0 24 24">
  <path d="M18.2978 4.39676L20.8484 1.84617H0.923077C0.413276 1.84617 0 1.4329 0 0.923095C0 0.413293 0.413276 1.7665e-05 0.923077 1.7665e-05L20.9072 8.86185e-06C21.33 -8.72025e-05 21.7418 -0.000180846 22.0594 0.0447247C22.3556 0.0866143 22.9785 0.218988 23.2419 0.854764C23.5052 1.49054 23.1584 2.02461 22.9785 2.2637C22.7857 2.52 22.4944 2.81116 22.1954 3.11007L19.6638 5.64168C19.2499 5.1876 18.7926 4.77065 18.2978 4.39676Z" fill="#000"/>
  <path d="M4.33624 18.3584L1.80462 20.89C1.50557 21.1889 1.21428 21.48 1.02148 21.7363C0.841627 21.9754 0.494765 22.5095 0.758111 23.1453C1.02146 23.781 1.64437 23.9134 1.9406 23.9553C2.25815 24.0002 2.66996 24.0001 3.09276 24L23.0769 24C23.5867 24 24 23.5867 24 23.0769C24 22.5671 23.5867 22.1539 23.0769 22.1539H3.15158L5.70217 19.6033C5.20744 19.2294 4.75006 18.8124 4.33624 18.3584Z" fill="#000"/>
  <path d="M17.1954 14.5588C17.1954 13.2739 16.4643 12.2548 15.2015 11.7896C16.9295 10.9699 17.9265 9.68494 17.9265 8.22279C17.9265 5.94094 15.5339 4.34586 9.37509 5.29848L6.73878 18.9009C14.3375 19.8757 17.1954 17.2837 17.1954 14.5588ZM14.8249 8.93171C14.8249 10.0394 13.7837 11.0363 11.3911 11.3022L12.1 7.55817C13.8723 7.38094 14.8249 7.93479 14.8249 8.93171ZM14.116 14.6696C14.116 15.9545 12.8311 16.8628 10.3942 16.4862L11.0588 13.0523C13.1855 12.8086 14.116 13.4954 14.116 14.6696Z" fill="#000"/>
  <style>
    @media (prefers-color-scheme:dark){:root{filter:invert(100%)}}
  </style>
</svg>
