<svg xmlns="http://www.w3.org/2000/svg" fill="none" viewBox="0 0 24 24">
  <path d="M18.653 4.42725L21.3188 1.92002H12.0087C12.0058 1.92001 12.0029 1.92001 12 1.92001C11.9971 1.92001 11.9942 1.92001 11.9913 1.92002H0.96C0.429807 1.92002 0 1.49021 0 0.960017C0 0.429824 0.429807 1.69506e-05 0.96 1.69506e-05L21.3806 8.48202e-06C21.839 -8.65039e-05 22.2808 -0.000177941 22.6195 0.0471434C22.9269 0.0900992 23.598 0.227041 23.8685 0.909406C24.139 1.59177 23.7439 2.15129 23.5494 2.39322C23.3351 2.65972 23.0132 2.9623 22.6792 3.27632L19.9684 5.82584C19.575 5.31889 19.1344 4.85048 18.653 4.42725Z" fill="currentColor" />
  <path d="M4.03362 18.1768L1.32563 20.7237C0.991594 21.0377 0.669711 21.3403 0.455406 21.6068C0.260879 21.8487 -0.134156 22.4083 0.136313 23.0906C0.406782 23.773 1.07788 23.9099 1.38532 23.9529C1.72401 24.0002 2.16578 24.0001 2.62423 24L23.04 24C23.5702 24 24 23.5702 24 23.04C24 22.5098 23.5702 22.08 23.04 22.08L2.68597 22.08L5.3495 19.575C4.86799 19.1519 4.42716 18.6836 4.03362 18.1768Z" fill="currentColor" />
  <path d="M17.4032 14.5651C17.4032 13.2288 16.6429 12.169 15.3296 11.6851C17.1267 10.8327 18.1635 9.49633 18.1635 7.97569C18.1635 5.60257 15.6752 3.94369 9.27009 4.93441L6.52833 19.081C14.4311 20.0947 17.4032 17.3991 17.4032 14.5651ZM14.9379 8.71297C14.9379 9.86497 13.8551 10.9018 11.3667 11.1783L12.104 7.28449C13.9472 7.10017 14.9379 7.67617 14.9379 8.71297ZM14.2007 14.6803C14.2007 16.0167 12.8643 16.9613 10.3299 16.5696L11.0211 12.9984C13.233 12.745 14.2007 13.4592 14.2007 14.6803Z" fill="currentColor" />
</svg>
