<svg viewBox="0 0 16 16" fill="none" xmlns="http://www.w3.org/2000/svg">
<path d="M12.4353 2.95149L14.2125 1.28001H8.00578C8.00385 1.28001 8.00192 1.28001 7.99999 1.28001C7.99806 1.28001 7.99613 1.28001 7.9942 1.28001H0.639999C0.286537 1.28001 0 0.993472 0 0.64001C0 0.286549 0.286537 1.13004e-05 0.639999 1.13004e-05L14.2537 5.65467e-06C14.5593 -5.76692e-05 14.8538 -0.000118627 15.0796 0.0314289C15.2846 0.060066 15.732 0.15136 15.9123 0.60627C16.0926 1.06118 15.8293 1.43419 15.6996 1.59548C15.5567 1.77314 15.3421 1.97487 15.1195 2.18421L13.3123 3.88389C13.05 3.54592 12.7562 3.23365 12.4353 2.95149Z" fill="#000000"/>
<path d="M2.68908 12.1179L0.883754 13.8158C0.661062 14.0251 0.446473 14.2268 0.303604 14.4045C0.173919 14.5658 -0.0894374 14.9388 0.0908749 15.3937C0.271187 15.8486 0.718583 15.9399 0.923546 15.9686C1.14934 16.0001 1.44385 16.0001 1.74948 16L15.36 16C15.7134 16 16 15.7135 16 15.36C16 15.0065 15.7134 14.72 15.36 14.72L1.79065 14.72L3.56633 13.05C3.24532 12.7679 2.95143 12.4557 2.68908 12.1179Z" fill="#000000"/>
<path d="M11.6021 9.71008C11.6021 8.8192 11.0952 8.11264 10.2197 7.79008C11.4178 7.22176 12.109 6.33088 12.109 5.31712C12.109 3.73504 10.4501 2.62913 6.18005 3.28961L4.35221 12.7206C9.62069 13.3965 11.6021 11.5994 11.6021 9.71008ZM9.95861 5.80864C9.95861 6.57664 9.23669 7.26784 7.57781 7.45216L8.06933 4.85632C9.29813 4.73344 9.95861 5.11744 9.95861 5.80864ZM9.46709 9.78688C9.46709 10.6778 8.57621 11.3075 6.88661 11.0464L7.34741 8.6656C8.82197 8.49664 9.46709 8.9728 9.46709 9.78688Z" fill="#000000"/>
</svg>
